<mxfile host="app.diagrams.net" agent="Mozilla/5.0 (Macintosh; Intel Mac OS X 10_15_7) AppleWebKit/605.1.15 (KHTML, like Gecko) Version/17.5 Safari/605.1.15" version="24.7.12">
  <diagram name="Seite-1" id="6MOK_AtGe19aF7l6kN32">
    <mxGraphModel dx="1323" dy="1843" grid="1" gridSize="10" guides="1" tooltips="1" connect="1" arrows="1" fold="1" page="1" pageScale="1" pageWidth="1169" pageHeight="827" math="0" shadow="0">
      <root>
        <mxCell id="0" />
        <mxCell id="1" parent="0" />
        <mxCell id="0ZPSwxtvPEecO2LodFi1-13" style="rounded=0;orthogonalLoop=1;jettySize=auto;html=1;entryX=1;entryY=0.5;entryDx=0;entryDy=0;dashed=1;dashPattern=8 8;" edge="1" parent="1" source="0ZPSwxtvPEecO2LodFi1-2" target="0ZPSwxtvPEecO2LodFi1-4">
          <mxGeometry relative="1" as="geometry" />
        </mxCell>
        <mxCell id="0ZPSwxtvPEecO2LodFi1-15" style="rounded=0;orthogonalLoop=1;jettySize=auto;html=1;entryX=0;entryY=0.75;entryDx=0;entryDy=0;dashed=1;dashPattern=8 8;" edge="1" parent="1" source="0ZPSwxtvPEecO2LodFi1-2" target="0ZPSwxtvPEecO2LodFi1-8">
          <mxGeometry relative="1" as="geometry" />
        </mxCell>
        <mxCell id="0ZPSwxtvPEecO2LodFi1-2" value="Booking" style="html=1;whiteSpace=wrap;" vertex="1" parent="1">
          <mxGeometry x="500" y="334" width="140" height="80" as="geometry" />
        </mxCell>
        <mxCell id="0ZPSwxtvPEecO2LodFi1-14" style="rounded=0;orthogonalLoop=1;jettySize=auto;html=1;entryX=0.75;entryY=0;entryDx=0;entryDy=0;dashed=1;dashPattern=8 8;" edge="1" parent="1" source="0ZPSwxtvPEecO2LodFi1-3" target="0ZPSwxtvPEecO2LodFi1-4">
          <mxGeometry relative="1" as="geometry" />
        </mxCell>
        <mxCell id="0ZPSwxtvPEecO2LodFi1-3" value="Authentication" style="html=1;whiteSpace=wrap;" vertex="1" parent="1">
          <mxGeometry x="445" y="120" width="140" height="80" as="geometry" />
        </mxCell>
        <mxCell id="0ZPSwxtvPEecO2LodFi1-4" value="Person" style="html=1;whiteSpace=wrap;strokeColor=#FF3333;" vertex="1" parent="1">
          <mxGeometry x="170" y="300" width="140" height="80" as="geometry" />
        </mxCell>
        <mxCell id="0ZPSwxtvPEecO2LodFi1-12" style="rounded=0;orthogonalLoop=1;jettySize=auto;html=1;entryX=0.25;entryY=1;entryDx=0;entryDy=0;dashed=1;dashPattern=8 8;" edge="1" parent="1" source="0ZPSwxtvPEecO2LodFi1-5" target="0ZPSwxtvPEecO2LodFi1-2">
          <mxGeometry relative="1" as="geometry" />
        </mxCell>
        <mxCell id="0ZPSwxtvPEecO2LodFi1-18" style="rounded=0;orthogonalLoop=1;jettySize=auto;html=1;entryX=0;entryY=0.25;entryDx=0;entryDy=0;dashed=1;dashPattern=8 8;" edge="1" parent="1" source="0ZPSwxtvPEecO2LodFi1-5" target="0ZPSwxtvPEecO2LodFi1-6">
          <mxGeometry relative="1" as="geometry" />
        </mxCell>
        <mxCell id="0ZPSwxtvPEecO2LodFi1-5" value="Content" style="html=1;whiteSpace=wrap;" vertex="1" parent="1">
          <mxGeometry x="330" y="500" width="140" height="80" as="geometry" />
        </mxCell>
        <mxCell id="0ZPSwxtvPEecO2LodFi1-10" style="edgeStyle=orthogonalEdgeStyle;rounded=0;orthogonalLoop=1;jettySize=auto;html=1;entryX=0.5;entryY=1;entryDx=0;entryDy=0;dashed=1;dashPattern=8 8;" edge="1" parent="1" source="0ZPSwxtvPEecO2LodFi1-6" target="0ZPSwxtvPEecO2LodFi1-4">
          <mxGeometry relative="1" as="geometry" />
        </mxCell>
        <mxCell id="0ZPSwxtvPEecO2LodFi1-11" style="rounded=0;orthogonalLoop=1;jettySize=auto;html=1;entryX=0.75;entryY=1;entryDx=0;entryDy=0;dashed=1;dashPattern=8 8;" edge="1" parent="1" source="0ZPSwxtvPEecO2LodFi1-6" target="0ZPSwxtvPEecO2LodFi1-2">
          <mxGeometry relative="1" as="geometry" />
        </mxCell>
        <mxCell id="0ZPSwxtvPEecO2LodFi1-6" value="Payment" style="html=1;whiteSpace=wrap;" vertex="1" parent="1">
          <mxGeometry x="680" y="590" width="140" height="80" as="geometry" />
        </mxCell>
        <mxCell id="0ZPSwxtvPEecO2LodFi1-16" style="rounded=0;orthogonalLoop=1;jettySize=auto;html=1;entryX=1;entryY=0.5;entryDx=0;entryDy=0;dashed=1;dashPattern=8 8;" edge="1" parent="1" source="0ZPSwxtvPEecO2LodFi1-7" target="0ZPSwxtvPEecO2LodFi1-2">
          <mxGeometry relative="1" as="geometry" />
        </mxCell>
        <mxCell id="0ZPSwxtvPEecO2LodFi1-17" style="rounded=0;orthogonalLoop=1;jettySize=auto;html=1;entryX=0.75;entryY=0;entryDx=0;entryDy=0;dashed=1;dashPattern=8 8;" edge="1" parent="1" source="0ZPSwxtvPEecO2LodFi1-7" target="0ZPSwxtvPEecO2LodFi1-6">
          <mxGeometry relative="1" as="geometry" />
        </mxCell>
        <mxCell id="0ZPSwxtvPEecO2LodFi1-7" value="Statistics" style="html=1;whiteSpace=wrap;" vertex="1" parent="1">
          <mxGeometry x="830" y="334" width="140" height="80" as="geometry" />
        </mxCell>
        <mxCell id="0ZPSwxtvPEecO2LodFi1-8" value="Resource" style="html=1;whiteSpace=wrap;" vertex="1" parent="1">
          <mxGeometry x="770" y="170" width="140" height="80" as="geometry" />
        </mxCell>
        <mxCell id="bwk-Qk89EY2mPo6NLpBq-1" value="&lt;span style=&quot;text-align: start; font-size: medium;&quot;&gt;CarReservationSystem&lt;/span&gt;" style="html=1;whiteSpace=wrap;" vertex="1" parent="1">
          <mxGeometry x="20" y="690" width="210" height="90" as="geometry" />
        </mxCell>
        <mxCell id="0ZPSwxtvPEecO2LodFi1-21" style="edgeStyle=orthogonalEdgeStyle;rounded=0;orthogonalLoop=1;jettySize=auto;html=1;entryX=0;entryY=0.25;entryDx=0;entryDy=0;endArrow=none;endFill=0;dashed=1;dashPattern=8 8;" edge="1" parent="1" source="0ZPSwxtvPEecO2LodFi1-20" target="0ZPSwxtvPEecO2LodFi1-4">
          <mxGeometry relative="1" as="geometry" />
        </mxCell>
        <mxCell id="0ZPSwxtvPEecO2LodFi1-20" value="&lt;font style=&quot;font-size: 12px;&quot;&gt;Factory&lt;/font&gt;" style="shape=note2;boundedLbl=1;whiteSpace=wrap;html=1;size=25;verticalAlign=top;align=center;" vertex="1" parent="1">
          <mxGeometry x="20" y="290" width="100" height="60" as="geometry" />
        </mxCell>
        <mxCell id="0ZPSwxtvPEecO2LodFi1-22" value="&lt;font style=&quot;font-size: 12px;&quot;&gt;Composite&lt;/font&gt;" style="shape=note2;boundedLbl=1;whiteSpace=wrap;html=1;size=25;verticalAlign=top;align=center;" vertex="1" parent="1">
          <mxGeometry x="300" y="413.5" width="100" height="60" as="geometry" />
        </mxCell>
        <mxCell id="0ZPSwxtvPEecO2LodFi1-23" style="rounded=0;orthogonalLoop=1;jettySize=auto;html=1;exitX=0.5;exitY=0;exitDx=0;exitDy=0;entryX=0.5;entryY=1;entryDx=0;entryDy=0;entryPerimeter=0;endArrow=none;endFill=0;dashed=1;dashPattern=8 8;" edge="1" parent="1" source="0ZPSwxtvPEecO2LodFi1-5" target="0ZPSwxtvPEecO2LodFi1-22">
          <mxGeometry relative="1" as="geometry" />
        </mxCell>
        <mxCell id="0ZPSwxtvPEecO2LodFi1-25" style="rounded=0;orthogonalLoop=1;jettySize=auto;html=1;entryX=1;entryY=0.5;entryDx=0;entryDy=0;dashed=1;dashPattern=8 8;endArrow=none;endFill=0;" edge="1" parent="1" source="0ZPSwxtvPEecO2LodFi1-24" target="0ZPSwxtvPEecO2LodFi1-6">
          <mxGeometry relative="1" as="geometry" />
        </mxCell>
        <mxCell id="0ZPSwxtvPEecO2LodFi1-24" value="&lt;font style=&quot;font-size: 12px;&quot;&gt;Template&lt;/font&gt;" style="shape=note2;boundedLbl=1;whiteSpace=wrap;html=1;size=25;verticalAlign=top;align=center;" vertex="1" parent="1">
          <mxGeometry x="890" y="610" width="100" height="60" as="geometry" />
        </mxCell>
        <mxCell id="0ZPSwxtvPEecO2LodFi1-27" style="rounded=0;orthogonalLoop=1;jettySize=auto;html=1;entryX=1;entryY=0.5;entryDx=0;entryDy=0;dashed=1;dashPattern=8 8;endArrow=none;endFill=0;" edge="1" parent="1" source="0ZPSwxtvPEecO2LodFi1-26" target="0ZPSwxtvPEecO2LodFi1-7">
          <mxGeometry relative="1" as="geometry" />
        </mxCell>
        <mxCell id="0ZPSwxtvPEecO2LodFi1-26" value="&lt;font style=&quot;font-size: 12px;&quot;&gt;Visitor&lt;/font&gt;" style="shape=note2;boundedLbl=1;whiteSpace=wrap;html=1;size=25;verticalAlign=top;align=center;" vertex="1" parent="1">
          <mxGeometry x="1030" y="350" width="100" height="60" as="geometry" />
        </mxCell>
        <mxCell id="0ZPSwxtvPEecO2LodFi1-29" style="rounded=0;orthogonalLoop=1;jettySize=auto;html=1;entryX=1;entryY=0.5;entryDx=0;entryDy=0;dashed=1;dashPattern=8 8;endArrow=none;endFill=0;" edge="1" parent="1" source="0ZPSwxtvPEecO2LodFi1-28" target="0ZPSwxtvPEecO2LodFi1-8">
          <mxGeometry relative="1" as="geometry" />
        </mxCell>
        <mxCell id="0ZPSwxtvPEecO2LodFi1-28" value="&lt;font style=&quot;font-size: 12px;&quot;&gt;Decorator&lt;/font&gt;" style="shape=note2;boundedLbl=1;whiteSpace=wrap;html=1;size=25;verticalAlign=top;align=center;" vertex="1" parent="1">
          <mxGeometry x="990" y="190" width="100" height="60" as="geometry" />
        </mxCell>
        <mxCell id="0ZPSwxtvPEecO2LodFi1-31" style="rounded=0;orthogonalLoop=1;jettySize=auto;html=1;entryX=0.5;entryY=0;entryDx=0;entryDy=0;dashed=1;dashPattern=8 8;endArrow=none;endFill=0;" edge="1" parent="1" source="0ZPSwxtvPEecO2LodFi1-30" target="0ZPSwxtvPEecO2LodFi1-2">
          <mxGeometry relative="1" as="geometry" />
        </mxCell>
        <mxCell id="0ZPSwxtvPEecO2LodFi1-30" value="&lt;font style=&quot;font-size: 12px;&quot;&gt;Builder&lt;/font&gt;" style="shape=note2;boundedLbl=1;whiteSpace=wrap;html=1;size=25;verticalAlign=top;align=center;" vertex="1" parent="1">
          <mxGeometry x="510" y="240" width="100" height="60" as="geometry" />
        </mxCell>
        <mxCell id="0ZPSwxtvPEecO2LodFi1-33" style="rounded=0;orthogonalLoop=1;jettySize=auto;html=1;entryX=0;entryY=0.5;entryDx=0;entryDy=0;dashed=1;dashPattern=8 8;endArrow=none;endFill=0;" edge="1" parent="1" source="0ZPSwxtvPEecO2LodFi1-32" target="0ZPSwxtvPEecO2LodFi1-3">
          <mxGeometry relative="1" as="geometry" />
        </mxCell>
        <mxCell id="0ZPSwxtvPEecO2LodFi1-32" value="&lt;font style=&quot;font-size: 12px;&quot;&gt;Strategy&lt;/font&gt;" style="shape=note2;boundedLbl=1;whiteSpace=wrap;html=1;size=25;verticalAlign=top;align=center;" vertex="1" parent="1">
          <mxGeometry x="300" y="110" width="100" height="60" as="geometry" />
        </mxCell>
        <mxCell id="0ZPSwxtvPEecO2LodFi1-35" style="rounded=0;orthogonalLoop=1;jettySize=auto;html=1;entryX=1;entryY=0.5;entryDx=0;entryDy=0;dashed=1;dashPattern=8 8;endArrow=none;endFill=0;" edge="1" parent="1" source="0ZPSwxtvPEecO2LodFi1-34" target="bwk-Qk89EY2mPo6NLpBq-1">
          <mxGeometry relative="1" as="geometry" />
        </mxCell>
        <mxCell id="0ZPSwxtvPEecO2LodFi1-34" value="&lt;font style=&quot;font-size: 12px;&quot;&gt;Singleton&lt;/font&gt;" style="shape=note2;boundedLbl=1;whiteSpace=wrap;html=1;size=25;verticalAlign=top;align=center;" vertex="1" parent="1">
          <mxGeometry x="280" y="705" width="100" height="60" as="geometry" />
        </mxCell>
        <mxCell id="0ZPSwxtvPEecO2LodFi1-37" style="rounded=0;orthogonalLoop=1;jettySize=auto;html=1;entryX=0.5;entryY=1;entryDx=0;entryDy=0;dashed=1;dashPattern=8 8;endArrow=none;endFill=0;" edge="1" parent="1" source="0ZPSwxtvPEecO2LodFi1-36" target="0ZPSwxtvPEecO2LodFi1-2">
          <mxGeometry relative="1" as="geometry" />
        </mxCell>
        <mxCell id="0ZPSwxtvPEecO2LodFi1-36" value="&lt;font style=&quot;font-size: 12px;&quot;&gt;Observer&lt;/font&gt;" style="shape=note2;boundedLbl=1;whiteSpace=wrap;html=1;size=25;verticalAlign=top;align=center;" vertex="1" parent="1">
          <mxGeometry x="520" y="460" width="100" height="60" as="geometry" />
        </mxCell>
      </root>
    </mxGraphModel>
  </diagram>
</mxfile>
